:SAMPLES-PER-SECOND 30
:FULLY-SPECIFIED
:DEGREES
422
root  -35.7571 38.0557 27.5387 165.974 -82.6549 -152.757
RightUpLeg  -50.2569 -22.5 14.6443
RightLeg  34.9136 -0.613545 -0.786853
RightFoot  1.20954 -0.396046 3.52458
RightToes  0.00048216 0.542163 -0.142577
Spine  55.9408 -2.84486 8.15029
Spine1  15.6272 4.23254 -7.40059
HEad  -24.0799 -5.58937 -0.256148
LeftShoulder1  9.9346 -21.6241 -33.4213
LeftArm  -35.2216 -48.2907 -9.94352
LeftForeArm  -11.3979 -21.5074 -5.1686
LeftHand  -0.25398 0.0180481 5.50724
RightShoulder  4.01412 12.8428 17.9881
RightArm  -15.7551 50.2005 16.4601
RightForeArm  -62.0097 32.9845 9.5657
RightHand  0.0184699 -6.04097 -9.4165
LeftUpLeg  -52.2112 31.527 -18.5666
LeftLeg  19.6557 -4.76617 -1.55769
LeftFoot  11.6583 -3.01928 14.4049
LeftToes  1.06246e-005 4.65855e-005 -8.18505e-006
423
root  -36.4315 38.0322 27.7403 175.26 -83.1718 -158.775
RightUpLeg  -51.5026 -22.9503 17.3757
RightLeg  23.7736 3.0899 1.34678
RightFoot  3.65655 -0.0477218 0.766793
RightToes  0.00048216 0.542163 -0.142577
Spine  58.1309 -2.87933 7.65047
Spine1  14.317 4.30588 -8.00403
HEad  -25.4986 -6.89959 0.657603
LeftShoulder1  9.68171 -23.5331 -29.6089
LeftArm  -41.5569 -51.4958 -8.99434
LeftForeArm  -9.87271 -17.7851 -4.12268
LeftHand  -0.25398 0.0180481 5.50724
RightShoulder  4.16209 13.1539 18.4598
RightArm  -22.4488 52.7651 9.75131
RightForeArm  -57.6941 29.2834 8.49296
RightHand  -0.00588185 -6.20658 -4.84796
LeftUpLeg  -55.1763 29.3623 -20.4477
LeftLeg  21.2377 -3.56449 -1.19544
LeftFoot  9.91252 -2.76611 14.3344
LeftToes  1.06246e-005 4.65855e-005 -8.18505e-006
424
root  -37.0175 37.9646 27.8916 -177.095 -83.973 -163.302
RightUpLeg  -54.4946 -21.9907 18.5757
RightLeg  21.022 3.57362 1.29597
RightFoot  6.97113 1.10759 -6.62162
RightToes  0.00048216 0.542163 -0.142577
Spine  60.2016 -3.00866 7.76477
Spine1  13.0492 3.75043 -7.42676
HEad  -26.6372 -8.05037 1.13243
LeftShoulder1  9.38168 -24.9301 -26.6865
LeftArm  -47.0666 -54.3069 -6.50514
LeftForeArm  -9.83693 -14.8039 -2.59577
LeftHand  -0.25398 0.0180481 5.50724
RightShoulder  4.05114 13.2169 17.6393
RightArm  -30.3652 54.835 4.02994
RightForeArm  -52.2204 26.2194 7.62771
RightHand  -0.0353847 -5.68185 -0.778026
LeftUpLeg  -57.4739 26.4932 -21.4477
LeftLeg  22.3269 -2.03658 -0.58869
LeftFoot  8.6087 -2.56912 14.2309
LeftToes  1.06246e-005 4.65855e-005 -8.18505e-006
425
root  -37.5475 37.8649 28.0417 -170.317 -84.6782 -167.335
RightUpLeg  -57.696 -19.7143 17.0188
RightLeg  23.5525 1.00477 0.247797
RightFoot  7.92972 1.78074 -10.1611
RightToes  0.00048216 0.542163 -0.142577
Spine  62.1442 -4.04684 8.09945
Spine1  12.9147 3.21947 -8.23464
HEad  -28.5353 -8.58697 1.87316
LeftShoulder1  8.42798 -25.5106 -22.5705
LeftArm  -52.7317 -57.5181 -0.958574
LeftForeArm  -12.6605 -10.8491 -0.881677
LeftHand  -0.25398 0.0180481 5.50724
RightShoulder  3.78135 13.3346 15.7118
RightArm  -41.178 57.0157 -1.76227
RightForeArm  -45.6001 23.4135 6.92678
RightHand  -0.000163532 -3.89707 2.22299
LeftUpLeg  -59.7244 24.2329 -22.4949
LeftLeg  23.3689 -1.17732 -0.226604
LeftFoot  7.71734 -2.54215 14.7783
LeftToes  1.06246e-005 4.65855e-005 -8.18505e-006
426
root  -38.0985 37.747 28.1827 -163.808 -85.0336 -171.349
RightUpLeg  -60.5481 -18.5298 15.6088
RightLeg  26.1758 -0.440746 -0.456206
RightFoot  7.00506 1.45062 -8.64714
RightToes  0.00048216 0.542163 -0.142577
Spine  64.6835 -4.37117 7.96331
Spine1  11.396 3.25364 -8.02342
HEad  -29.6296 -9.47193 1.80345
LeftShoulder1  8.64327 -26.894 -21.8616
LeftArm  -57.9743 -59.2179 7.57164
LeftForeArm  -16.5488 -7.85573 -0.31813
LeftHand  -0.25398 0.0180481 5.50724
RightShoulder  3.57941 13.3565 14.3656
RightArm  -51.6064 57.9821 -9.04636
RightForeArm  -39.5435 21.1895 6.60272
RightHand  0.117845 -1.43725 3.86751
LeftUpLeg  -62.4308 23.1984 -24.1599
LeftLeg  25.0714 -1.22335 -0.287163
LeftFoot  6.26067 -2.42093 15.2856
LeftToes  1.06246e-005 4.65855e-005 -8.18505e-006
427
root  -38.6842 37.6491 28.282 -160.716 -85.1126 -171.848
RightUpLeg  -63.4042 -18.5023 16.1924
RightLeg  27.5781 -0.116183 -0.297119
RightFoot  5.77114 1.16717 -7.49151
RightToes  0.00048216 0.542163 -0.142577
Spine  67.3723 -3.66629 7.75133
Spine1  9.02877 3.59717 -6.29618
HEad  -29.7772 -10.3882 1.33937
LeftShoulder1  9.82933 -29.0451 -23.677
LeftArm  -64.683 -58.2213 12.9523
LeftForeArm  -15.562 -10.7731 -0.284788
LeftHand  -0.25398 0.0180481 5.50724
RightShoulder  3.37761 13.0619 13.4448
RightArm  -59.7018 58.171 -15.7347
RightForeArm  -34.5181 19.5787 6.26266
RightHand  0.267628 0.87014 4.88649
LeftUpLeg  -65.2431 22.4405 -25.4122
LeftLeg  26.9694 -1.18306 -0.311815
LeftFoot  4.5377 -2.13876 15.0408
LeftToes  1.06246e-005 4.65855e-005 -8.18505e-006
428
root  -39.2619 37.6064 28.3461 -160.643 -85.1785 -169.298
RightUpLeg  -66.0528 -18.5737 17.6723
RightLeg  28.4524 0.439935 0.0216303
RightFoot  5.05459 1.23109 -8.28546
RightToes  0.00048216 0.542163 -0.142577
Spine  69.6185 -3.18195 7.6053
Spine1  7.05972 3.68653 -5.33546
HEad  -29.493 -10.4844 1.64823
LeftShoulder1  10.4107 -30.4376 -24.1367
LeftArm  -77.0894 -55.0245 11.3216
LeftForeArm  -3.26621 -20.8046 -2.47403
LeftHand  -0.25398 0.0180481 5.50724
RightShoulder  3.1858 12.9277 12.3462
RightArm  -66.5237 58.2254 -20.0954
RightForeArm  -29.4087 18.465 5.75141
RightHand  0.447655 3.06132 5.85609
LeftUpLeg  -67.7362 21.724 -26.325
LeftLeg  28.1943 -1.20922 -0.359641
LeftFoot  3.41918 -1.95934 14.8798
LeftToes  1.06246e-005 4.65855e-005 -8.18505e-006
429
root  -39.816 37.568 28.4063 -161.969 -85.1835 -165.572
RightUpLeg  -68.1896 -18.1755 18.5255
RightLeg  29.4411 0.447735 0.0329823
RightFoot  4.35121 1.18396 -8.345
RightToes  0.00048216 0.542163 -0.142577
Spine  71.3364 -3.26665 7.38698
Spine1  5.92901 3.63646 -5.82967
HEad  -29.1269 -10.2254 2.47477
LeftShoulder1  9.70945 -30.862 -21.5743
LeftArm  -85.6966 -51.7504 7.12248
LeftForeArm  7.34898 -30.7499 -6.47587
LeftHand  -0.25398 0.0180481 5.50724
RightShoulder  2.95152 12.9587 10.718
RightArm  -72.2232 58.1042 -22.6296
RightForeArm  -24.9733 17.6976 5.12367
RightHand  0.632984 5.3287 6.44701
LeftUpLeg  -70.2007 21.4174 -27.478
LeftLeg  29.3532 -1.63875 -0.651395
LeftFoot  2.39466 -1.87721 15.368
LeftToes  1.06246e-005 4.65855e-005 -8.18505e-006
430
root  -40.3337 37.5229 28.4677 -164.648 -85.0999 -160.751
RightUpLeg  -69.8754 -17.4949 18.904
RightLeg  30.2308 0.233969 -0.094277
RightFoot  3.48012 0.955516 -7.14827
RightToes  0.00048216 0.542163 -0.142577
Spine  72.6003 -3.17278 7.15546
Spine1  5.0875 3.82139 -6.20714
HEad  -28.7705 -10.3721 2.74416
LeftShoulder1  8.68953 -30.9988 -18.3125
LeftArm  -89.7607 -50.8636 10.9186
LeftForeArm  6.82517 -30.7115 -6.33974
LeftHand  -0.25398 0.0180481 5.50724
RightShoulder  2.58728 12.5518 8.7074
RightArm  -75.9904 57.8734 -24.3675
RightForeArm  -22.4346 17.2422 4.64601
RightHand  0.738516 7.28177 6.28557
LeftUpLeg  -72.5965 21.3518 -28.5844
LeftLeg  30.6922 -2.1389 -1.02109
LeftFoot  1.06646 -1.70971 15.5558
LeftToes  1.06246e-005 4.65855e-005 -8.18505e-006
431
root  -40.8129 37.4891 28.51 -167.484 -85.1628 -155.955
RightUpLeg  -71.4411 -16.9867 19.4708
RightLeg  30.8128 0.0844189 -0.189542
RightFoot  2.7063 0.841503 -6.67297
RightToes  0.00048216 0.542163 -0.142577
Spine  73.4687 -2.85838 6.99761
Spine1  4.38068 3.98682 -5.94439
HEad  -28.5024 -10.5194 2.6549
LeftShoulder1  8.20258 -31.3604 -16.5243
LeftArm  -93.1995 -49.584 13.1986
LeftForeArm  8.29793 -32.2402 -6.64174
LeftHand  -0.25398 0.0180481 5.50724
RightShoulder  2.31461 12.0049 7.36893
RightArm  -77.8604 57.7623 -25.6236
RightForeArm  -21.1707 17.3698 4.51098
RightHand  0.725315 8.56396 5.51707
LeftUpLeg  -74.6333 21.2229 -29.5289
LeftLeg  31.7827 -2.67079 -1.43069
LeftFoot  -0.0605231 -1.48433 14.9403
LeftToes  1.06246e-005 4.65855e-005 -8.18505e-006
432
root  -41.2429 37.4942 28.5314 -168.643 -85.513 -153.252
RightUpLeg  -72.6162 -16.811 19.8137
RightLeg  31.3174 -0.185254 -0.36814
RightFoot  2.13537 0.840258 -6.97377
RightToes  0.00048216 0.542163 -0.142577
Spine  74.1504 -2.41729 6.77363
Spine1  3.9547 4.03696 -5.03389
HEad  -28.2729 -10.5443 2.60352
LeftShoulder1  8.17871 -31.918 -16.0157
LeftArm  -95.515 -48.4282 16.0801
LeftForeArm  8.76408 -32.357 -6.64653
LeftHand  -0.25398 0.0180481 5.50724
RightShoulder  2.07691 11.2413 6.44303
RightArm  -78.346 57.9267 -25.5376
RightForeArm  -20.0152 18.3155 4.70873
RightHand  0.614505 9.33722 4.31474
LeftUpLeg  -75.8991 21.0431 -30.5413
LeftLeg  32.2209 -3.36387 -1.9294
LeftFoot  -0.61184 -1.36461 14.4896
LeftToes  1.06246e-005 4.65855e-005 -8.18505e-006
433
root  -41.6197 37.5129 28.556 -170.629 -85.9413 -150.237
RightUpLeg  -73.1591 -16.6884 19.5913
RightLeg  31.7666 -0.681569 -0.702956
RightFoot  1.50876 0.743336 -6.49117
RightToes  0.00048216 0.542163 -0.142577
Spine  74.2866 -3.0741 6.30392
Spine1  4.82899 3.36367 -5.98169
HEad  -28.5998 -9.06557 3.64505
LeftShoulder1  6.86084 -30.5711 -12.8775
LeftArm  -98.8288 -47.7909 18.1124
LeftForeArm  9.89484 -31.2974 -6.31216
LeftHand  -0.25398 0.0180481 5.50724
RightShoulder  2.03215 11.5895 5.73271
RightArm  -80.096 58.3685 -24.7178
RightForeArm  -18.2002 19.4728 4.82152
RightHand  0.436511 9.8123 2.79956
LeftUpLeg  -76.6744 21.0431 -31.5734
LeftLeg  32.506 -4.11722 -2.46953
LeftFoot  -1.15152 -1.34756 15.105
LeftToes  1.06246e-005 4.65855e-005 -8.18505e-006
434
root  -41.9412 37.5101 28.5882 -178.141 -86.2849 -141.818
RightUpLeg  -73.4654 -16.3182 19.312
RightLeg  32.0716 -1.36793 -1.17256
RightFoot  0.774761 0.570817 -5.32154
RightToes  0.00048216 0.542163 -0.142577
Spine  74.1876 -3.13846 6.36258
Spine1  5.18747 3.39117 -5.85982
HEad  -28.403 -8.58902 3.9286
LeftShoulder1  6.3146 -29.9462 -11.5108
LeftArm  -100.175 -47.831 18.9584
LeftForeArm  11.564 -30.1662 -5.9377
LeftHand  -0.25398 0.0180481 5.50724
RightShoulder  1.98734 11.5591 5.42972
RightArm  -80.2597 58.5446 -23.9316
RightForeArm  -17.3702 20.4202 5.04755
RightHand  0.230118 9.96239 1.20812
LeftUpLeg  -77.4634 20.8964 -31.9689
LeftLeg  33.052 -4.48038 -2.77812
LeftFoot  -1.91691 -1.32522 16.0999
LeftToes  1.06246e-005 4.65855e-005 -8.18505e-006
